<svg xmlns="http://www.w3.org/2000/svg" xmlns:xlink="http://www.w3.org/1999/xlink" version="1.1" x="0px" y="0px" viewBox="0 0 100 125" style="enable-background:new 0 0 100 100;" xml:space="preserve"><path d="M94.5,88.6L76.8,70.9c6.6-7.4,10.7-17.2,10.7-27.9c0-23.1-18.8-41.9-41.9-41.9S3.7,19.9,3.7,43  s18.8,41.9,41.9,41.9c8.2,0,15.8-2.4,22.2-6.4l18.4,18.4c1.1,1.1,2.6,1.7,4.1,1.7c1.5,0,3-0.6,4.1-1.7  C96.8,94.6,96.8,90.9,94.5,88.6z M15.4,43c0-16.6,13.5-30.2,30.2-30.2S75.7,26.4,75.7,43S62.2,73.2,45.6,73.2S15.4,59.7,15.4,43z"/><text x="0" y="115" fill="#000000" font-size="5px" font-weight="bold" font-family="'Helvetica Neue', Helvetica, Arial-Unicode, Arial, Sans-serif">Created by Aneeque Ahmed</text><text x="0" y="120" fill="#000000" font-size="5px" font-weight="bold" font-family="'Helvetica Neue', Helvetica, Arial-Unicode, Arial, Sans-serif">from the Noun Project</text></svg>